<svg width="62" height="32" viewBox="0 0 62 32" fill="none" xmlns="http://www.w3.org/2000/svg">
<path d="M31.3398 0.26653V0.533205H32.0515H32.7631V7.69827V14.8633H32.0515H31.3398V15.13V15.3967H33.8305H36.3213V15.13V14.8633H35.6096H34.898V11.1642V7.465H38.4561H42.0143V11.1642V14.8633H41.3383H40.6622V15.13V15.3967H43.0818H45.5013V15.13V14.8633H44.8253H44.1492V7.69827V0.533205H44.8253H45.5013V0.26653V0H43.0818H40.6622V0.26653V0.533205H41.3383H42.0143V3.73243V6.9318H38.4561H34.898V3.73243V0.533205H35.6096H36.3213V0.26653V0H33.8305H31.3398V0.26653ZM33.8305 7.69827V14.8633H33.6171H33.4036V7.69827V0.533205H33.6171H33.8305V7.69827ZM43.0818 7.69827V14.8633H42.8328H42.5836V7.69827V0.533205H42.8328H43.0818V7.69827Z" fill="white"/>
<path d="M0.382812 16.783C0.382812 17.3094 0.61049 18.1227 0.930716 18.7292C1.32212 19.489 2.1904 20.2755 3.08697 20.6888C4.58848 21.3752 6.37471 21.5352 9.17864 21.222C10.6374 21.062 11.1569 20.9487 13.7259 20.2289C17.4833 19.1691 20.2729 18.9491 22.9416 19.509C24.8061 19.8955 26.2578 20.5887 27.489 21.6951C28.172 22.3084 28.6205 22.8682 28.9123 23.4747C29.2609 24.1813 29.3535 24.6146 29.389 25.6942C29.4104 26.2408 29.4388 26.8207 29.4602 26.9741C29.5029 27.2872 29.7804 27.6606 29.9796 27.6606C30.1861 27.6606 30.3924 27.3805 30.492 26.9607C30.6344 26.3676 30.613 24.8879 30.4565 24.1947C29.8729 21.6485 28.1934 19.5557 25.8165 18.4159C24.5925 17.8294 23.6675 17.5695 21.9452 17.3362C20.031 17.0695 19.4262 17.0295 17.2841 17.0295C14.4162 17.0295 13.4626 17.1428 9.66967 17.9293C7.04375 18.4759 6.47433 18.5758 5.27167 18.6759C3.30051 18.8425 1.87725 18.4026 1.05171 17.3761C0.873838 17.1562 0.695968 16.8429 0.646159 16.6829C0.525171 16.2564 0.382812 16.3097 0.382812 16.783ZM21.9452 18.7358C24.4645 19.0225 26.3005 19.8556 27.923 21.4352C28.6133 22.1084 28.8766 22.4484 29.2396 23.1215C29.638 23.868 29.7733 24.4679 29.7663 25.4544L29.752 26.2941L29.6951 25.5276C29.5456 23.7414 29.0119 22.6616 27.681 21.4819C25.6102 19.649 22.5929 18.7758 19.0774 18.9957C17.1205 19.1158 15.8324 19.3557 13.299 20.0689C10.6588 20.8087 9.44906 21.022 7.34261 21.102C5.79114 21.1619 4.69533 21.022 3.67055 20.6221C3.42857 20.522 3.2364 20.4355 3.24363 20.4287C3.25777 20.4155 3.50682 20.4621 3.80568 20.5288C4.61708 20.7088 5.65601 20.7953 6.98672 20.7953C8.95081 20.7953 10.0183 20.6221 13.057 19.8022C15.7398 19.0758 16.8642 18.8558 18.6361 18.7092C19.298 18.6559 21.3903 18.6691 21.9452 18.7358Z" fill="white"/>
<path d="M61.6547 16.5297C61.6547 16.9963 60.8362 17.9093 60.1104 18.2493C59.3845 18.5959 58.8864 18.6892 57.7761 18.6892C56.5023 18.6892 55.7195 18.5759 52.7592 17.9627C48.8309 17.1495 47.856 17.0295 44.9668 17.0295C42.7535 17.0295 42.1558 17.0762 40.1062 17.3695C37.5087 17.7427 35.7582 18.5092 34.2567 19.929C32.5914 21.5019 31.6947 23.4948 31.6876 25.661C31.6806 27.0141 31.9296 27.7405 32.3565 27.6338C32.7195 27.5539 32.7836 27.3273 32.8476 26.0276C32.8832 25.2011 32.9401 24.6679 33.0397 24.3213C33.666 22.0217 36.2492 20.0889 39.5156 19.4624C41.131 19.1557 42.7749 19.1357 44.7533 19.4024C45.9986 19.569 47.0732 19.809 49.0017 20.3555C51.7201 21.1219 53.1149 21.3353 55.4277 21.3486C56.4454 21.3553 56.9364 21.3286 57.4132 21.2353C59.3347 20.882 60.6299 20.0489 61.3343 18.7092C61.7045 18.0094 61.861 17.4828 61.8823 16.8629C61.9037 16.5029 61.8823 16.4296 61.7827 16.4096C61.6902 16.3964 61.6547 16.4296 61.6547 16.5297ZM44.9668 18.8558C46.2334 19.0358 46.938 19.1891 48.8024 19.6957C52.2468 20.6221 52.8802 20.7355 54.9296 20.7753C56.6091 20.8087 57.7335 20.7221 58.6799 20.4754C59.3062 20.3088 59.2351 20.4021 58.5376 20.6554C57.5414 21.0088 56.9364 21.0953 55.3922 21.0887C53.1363 21.082 51.8554 20.882 49.0799 20.0956C47.0874 19.5357 46.4114 19.3824 45.1874 19.1957C40.7753 18.5292 37.0675 19.3157 34.6267 21.4286C33.7514 22.1885 33.1821 23.0149 32.8334 24.028C32.7052 24.4012 32.6626 24.7079 32.6342 25.5611C32.5985 26.3676 32.5771 26.5474 32.5416 26.2941C32.2498 24.3946 32.8619 22.8082 34.463 21.3219C36.1211 19.7822 37.7721 19.0624 40.4835 18.7026C40.6045 18.6892 41.4512 18.6826 42.3693 18.6958C43.579 18.7158 44.2977 18.7558 44.9668 18.8558Z" fill="white"/>
<path d="M20.9841 21.2353C19.3048 21.3886 18.2445 21.5686 15.3266 22.1685C13.0566 22.6416 12.1955 22.7417 11.5622 22.595C11.1778 22.5083 10.7723 22.2484 10.7723 22.0884C10.7723 21.9751 10.6868 21.9685 10.573 22.0752C10.2385 22.3883 10.8647 23.4948 11.7329 24.108C12.7007 24.7946 13.6402 25.0811 14.8997 25.0811C15.9386 25.0811 16.2945 25.0145 18.0949 24.4879C20.0164 23.9147 21.3187 23.5748 22.2011 23.4015C23.7383 23.1082 25.2611 23.1015 26.0724 23.3882C26.9548 23.7014 27.7518 24.5612 28.1432 25.621C28.371 26.2342 28.5132 26.3342 28.6271 25.9476C28.9046 25.0145 28.3283 23.5214 27.3462 22.615C26.7271 22.0418 25.4675 21.5686 23.9944 21.3686C23.2472 21.262 21.5036 21.1886 20.9841 21.2353ZM25.5671 22.6683C26.3214 22.8282 27.1185 23.3482 27.581 23.9881C27.8088 24.2947 27.8088 24.2947 27.3817 23.888C26.8979 23.4349 26.2859 23.1149 25.6596 22.9882C25.3963 22.9416 24.8554 22.9216 24.1154 22.9483C22.5356 22.995 21.3471 23.2415 17.9241 24.248C16.0525 24.8012 15.9174 24.8279 14.8997 24.8212C14.1383 24.8145 13.9247 24.7878 13.4409 24.6413C12.9427 24.4879 12.1457 24.108 11.9536 23.9281C11.9179 23.8948 12.1457 23.9613 12.4516 24.0746C13.6402 24.5079 15.2199 24.6545 16.2518 24.4212C16.5081 24.368 17.5826 24.0546 18.6357 23.7348C21.1265 22.9682 22.0944 22.7417 23.724 22.5683C24.0799 22.5283 25.197 22.5884 25.5671 22.6683Z" fill="white"/>
<path d="M39.4523 21.2352C37.8867 21.3685 36.7623 21.6152 35.8514 22.0285C35.0401 22.3951 34.485 22.9283 34.0509 23.7548C33.5741 24.6545 33.4247 25.721 33.7236 26.1009C33.8516 26.2675 33.9228 26.1942 34.1079 25.6543C34.4423 24.6945 35.1539 23.8814 36.0008 23.4881C36.6199 23.2082 37.4382 23.1083 38.52 23.1948C39.8365 23.3015 40.9467 23.5482 43.3236 24.2413C45.7217 24.9411 45.8925 24.9812 46.6327 25.0611C48.7319 25.2944 50.7956 24.4146 51.5856 22.9549C51.9129 22.3484 51.7849 21.7618 51.4219 22.2017C51.1729 22.495 50.8811 22.6017 50.262 22.6416C49.6073 22.6882 49.0594 22.6149 47.3514 22.2551C45.2379 21.8084 43.4018 21.4685 42.5265 21.3619C41.6725 21.2552 40.0216 21.1886 39.4523 21.2352ZM39.6301 22.7016C40.6549 22.8616 41.5587 23.0949 43.7221 23.7614C44.8392 24.1014 45.9495 24.4212 46.1985 24.4678C47.1877 24.6412 48.796 24.4612 49.9275 24.0347C50.3473 23.8814 50.3616 23.8747 50.1979 24.0079C49.9559 24.2013 48.9597 24.6278 48.5327 24.7211C47.8993 24.8679 47.0739 24.8811 46.3835 24.7678C46.0348 24.7145 45.0741 24.4678 44.2629 24.228C40.8399 23.2214 39.8223 23.0016 38.2283 22.9483C36.4989 22.8882 35.8585 23.0615 34.9831 23.8213L34.5135 24.228L34.7554 23.9014C35.339 23.1281 36.1432 22.7216 37.3529 22.5683C37.7088 22.5216 38.954 22.5949 39.6301 22.7016Z" fill="white"/>
<path d="M29.3036 28.3873C28.6418 28.7673 28.9477 29.727 29.7305 29.727C30.0935 29.727 30.3212 29.5871 30.4564 29.2805C30.7553 28.614 29.9725 28.0075 29.3036 28.3873Z" fill="white"/>
<path d="M32.2225 28.3205C31.7386 28.5139 31.6033 29.1871 31.9735 29.5337C32.3861 29.9135 33.1689 29.7403 33.3042 29.2337C33.3754 28.967 33.2758 28.6338 33.0907 28.4672C32.9057 28.3005 32.4573 28.2272 32.2225 28.3205Z" fill="white"/>
<path d="M28.7053 30.4133C28.3139 30.5999 28.3353 31.1397 28.741 31.2997C29.1465 31.4597 29.4881 31.2531 29.4881 30.8532C29.4881 30.6598 29.4455 30.5733 29.3032 30.4666C29.0826 30.3066 28.9545 30.2934 28.7053 30.4133Z" fill="white"/>
<path d="M32.948 30.4666C32.5566 30.7533 32.7915 31.3532 33.2969 31.3532C33.6241 31.3532 33.8305 31.1465 33.8305 30.8266C33.8305 30.5733 33.5673 30.3267 33.2969 30.3267C33.2114 30.3267 33.0549 30.3867 32.948 30.4666Z" fill="white"/>
<path d="M16.75 0.26653V0.533205H17.4616H18.1733V7.69827V14.8633H17.4616H16.75V15.13V15.3967H19.2406H21.7314V15.13V14.8633H21.0198H20.3081V11.1642V7.465H23.8663H27.4244V11.1642V14.8633H26.7483H26.0724V15.13V15.3967H28.492H30.9114V15.13V14.8633H30.2355H29.5593V7.69827V0.533205H30.2355H30.9114V0.26653V0H28.492H26.0724V0.26653V0.533205H26.7483H27.4244V3.73243V6.9318H23.8663H20.3081V3.73243V0.533205H21.0198H21.7314V0.26653V0H19.2406H16.75V0.26653ZM19.2406 7.69827V14.8633H18.9916H18.7425V7.69827V0.533205H18.9916H19.2406V7.69827ZM28.4208 7.69827V14.8633H28.2073H27.9937V7.69827V0.533205H28.2073H28.4208V7.69827Z" fill="white"/>
</svg>
