<svg width="954" height="195" viewBox="0 0 954 195" fill="none" xmlns="http://www.w3.org/2000/svg">
<g filter="url(#filter0_f_751_3)">
<path d="M934 97.5C934 101.156 931.94 105.46 926.326 110.359C920.74 115.234 912.208 120.169 900.749 125.006C877.872 134.665 844.463 143.475 802.804 150.914C719.568 165.778 604.376 175 477 175C349.624 175 234.432 165.778 151.196 150.914C109.537 143.475 76.1279 134.665 53.251 125.006C41.792 120.169 33.2601 115.234 27.6737 110.359C22.0596 105.46 20 101.156 20 97.5C20 93.8443 22.0596 89.5399 27.6737 84.6406C33.2601 79.7657 41.792 74.8315 53.251 69.9936C76.1279 60.3351 109.537 51.5249 151.196 44.0858C234.432 29.2222 349.624 20 477 20C604.376 20 719.568 29.2222 802.804 44.0858C844.463 51.5249 877.872 60.3351 900.749 69.9936C912.208 74.8315 920.74 79.7657 926.326 84.6406C931.94 89.5399 934 93.8443 934 97.5Z" stroke="#FFA800" stroke-width="10"/>
</g>
<g filter="url(#filter1_f_751_3)">
<path d="M934 97.5C934 101.156 931.94 105.46 926.326 110.359C920.74 115.234 912.208 120.169 900.749 125.006C877.872 134.665 844.463 143.475 802.804 150.914C719.568 165.778 604.376 175 477 175C349.624 175 234.432 165.778 151.196 150.914C109.537 143.475 76.1279 134.665 53.251 125.006C41.792 120.169 33.2601 115.234 27.6737 110.359C22.0596 105.46 20 101.156 20 97.5C20 93.8443 22.0596 89.5399 27.6737 84.6406C33.2601 79.7657 41.792 74.8315 53.251 69.9936C76.1279 60.3351 109.537 51.5249 151.196 44.0858C234.432 29.2222 349.624 20 477 20C604.376 20 719.568 29.2222 802.804 44.0858C844.463 51.5249 877.872 60.3351 900.749 69.9936C912.208 74.8315 920.74 79.7657 926.326 84.6406C931.94 89.5399 934 93.8443 934 97.5Z" stroke="#FFA800" stroke-width="10"/>
</g>
<g filter="url(#filter2_f_751_3)">
<path d="M934 97.5C934 101.156 931.94 105.46 926.326 110.359C920.74 115.234 912.208 120.169 900.749 125.006C877.872 134.665 844.463 143.475 802.804 150.914C719.568 165.778 604.376 175 477 175C349.624 175 234.432 165.778 151.196 150.914C109.537 143.475 76.1279 134.665 53.251 125.006C41.792 120.169 33.2601 115.234 27.6737 110.359C22.0596 105.46 20 101.156 20 97.5C20 93.8443 22.0596 89.5399 27.6737 84.6406C33.2601 79.7657 41.792 74.8315 53.251 69.9936C76.1279 60.3351 109.537 51.5249 151.196 44.0858C234.432 29.2222 349.624 20 477 20C604.376 20 719.568 29.2222 802.804 44.0858C844.463 51.5249 877.872 60.3351 900.749 69.9936C912.208 74.8315 920.74 79.7657 926.326 84.6406C931.94 89.5399 934 93.8443 934 97.5Z" stroke="#FFA800" stroke-width="10"/>
</g>
<g filter="url(#filter3_f_751_3)">
<path d="M934 97.5C934 101.156 931.94 105.46 926.326 110.359C920.74 115.234 912.208 120.169 900.749 125.006C877.872 134.665 844.463 143.475 802.804 150.914C719.568 165.778 604.376 175 477 175C349.624 175 234.432 165.778 151.196 150.914C109.537 143.475 76.1279 134.665 53.251 125.006C41.792 120.169 33.2601 115.234 27.6737 110.359C22.0596 105.46 20 101.156 20 97.5C20 93.8443 22.0596 89.5399 27.6737 84.6406C33.2601 79.7657 41.792 74.8315 53.251 69.9936C76.1279 60.3351 109.537 51.5249 151.196 44.0858C234.432 29.2222 349.624 20 477 20C604.376 20 719.568 29.2222 802.804 44.0858C844.463 51.5249 877.872 60.3351 900.749 69.9936C912.208 74.8315 920.74 79.7657 926.326 84.6406C931.94 89.5399 934 93.8443 934 97.5Z" stroke="#FFA800" stroke-width="10"/>
</g>
<path d="M934 97.5C934 101.156 931.94 105.46 926.326 110.359C920.74 115.234 912.208 120.169 900.749 125.006C877.872 134.665 844.463 143.475 802.804 150.914C719.568 165.778 604.376 175 477 175C349.624 175 234.432 165.778 151.196 150.914C109.537 143.475 76.1279 134.665 53.251 125.006C41.792 120.169 33.2601 115.234 27.6737 110.359C22.0596 105.46 20 101.156 20 97.5C20 93.8443 22.0596 89.5399 27.6737 84.6406C33.2601 79.7657 41.792 74.8315 53.251 69.9936C76.1279 60.3351 109.537 51.5249 151.196 44.0858C234.432 29.2222 349.624 20 477 20C604.376 20 719.568 29.2222 802.804 44.0858C844.463 51.5249 877.872 60.3351 900.749 69.9936C912.208 74.8315 920.74 79.7657 926.326 84.6406C931.94 89.5399 934 93.8443 934 97.5Z" stroke="#D0D0D0" stroke-width="10"/>
<g filter="url(#filter4_f_751_3)">
<path d="M783 97.5357C783 99.3299 781.997 101.817 778.394 104.961C774.819 108.08 769.254 111.322 761.615 114.546C746.379 120.979 724.027 126.884 696.031 131.883C640.121 141.867 562.679 148.071 477 148.071C391.321 148.071 313.879 141.867 257.969 131.883C229.973 126.884 207.621 120.979 192.385 114.546C184.746 111.322 179.181 108.08 175.606 104.961C172.003 101.817 171 99.3299 171 97.5357C171 95.7415 172.003 93.2545 175.606 90.1106C179.181 86.9909 184.746 83.7499 192.385 80.525C207.621 74.0925 229.973 68.1875 257.969 63.1882C313.879 53.2041 391.321 47 477 47C562.679 47 640.121 53.2041 696.031 63.1882C724.027 68.1875 746.379 74.0925 761.615 80.525C769.254 83.7499 774.819 86.9909 778.394 90.1106C781.997 93.2545 783 95.7415 783 97.5357Z" stroke="#FFAA06" stroke-width="10"/>
</g>
<g filter="url(#filter5_f_751_3)">
<path d="M783 97.5357C783 99.3299 781.997 101.817 778.394 104.961C774.819 108.08 769.254 111.322 761.615 114.546C746.379 120.979 724.027 126.884 696.031 131.883C640.121 141.867 562.679 148.071 477 148.071C391.321 148.071 313.879 141.867 257.969 131.883C229.973 126.884 207.621 120.979 192.385 114.546C184.746 111.322 179.181 108.08 175.606 104.961C172.003 101.817 171 99.3299 171 97.5357C171 95.7415 172.003 93.2545 175.606 90.1106C179.181 86.9909 184.746 83.7499 192.385 80.525C207.621 74.0925 229.973 68.1875 257.969 63.1882C313.879 53.2041 391.321 47 477 47C562.679 47 640.121 53.2041 696.031 63.1882C724.027 68.1875 746.379 74.0925 761.615 80.525C769.254 83.7499 774.819 86.9909 778.394 90.1106C781.997 93.2545 783 95.7415 783 97.5357Z" stroke="#FFAA06" stroke-width="10"/>
</g>
<g filter="url(#filter6_f_751_3)">
<path d="M783 97.5357C783 99.3299 781.997 101.817 778.394 104.961C774.819 108.08 769.254 111.322 761.615 114.546C746.379 120.979 724.027 126.884 696.031 131.883C640.121 141.867 562.679 148.071 477 148.071C391.321 148.071 313.879 141.867 257.969 131.883C229.973 126.884 207.621 120.979 192.385 114.546C184.746 111.322 179.181 108.08 175.606 104.961C172.003 101.817 171 99.3299 171 97.5357C171 95.7415 172.003 93.2545 175.606 90.1106C179.181 86.9909 184.746 83.7499 192.385 80.525C207.621 74.0925 229.973 68.1875 257.969 63.1882C313.879 53.2041 391.321 47 477 47C562.679 47 640.121 53.2041 696.031 63.1882C724.027 68.1875 746.379 74.0925 761.615 80.525C769.254 83.7499 774.819 86.9909 778.394 90.1106C781.997 93.2545 783 95.7415 783 97.5357Z" stroke="#FFAA06" stroke-width="10"/>
</g>
<g filter="url(#filter7_f_751_3)">
<path d="M783 97.5357C783 99.3299 781.997 101.817 778.394 104.961C774.819 108.08 769.254 111.322 761.615 114.546C746.379 120.979 724.027 126.884 696.031 131.883C640.121 141.867 562.679 148.071 477 148.071C391.321 148.071 313.879 141.867 257.969 131.883C229.973 126.884 207.621 120.979 192.385 114.546C184.746 111.322 179.181 108.08 175.606 104.961C172.003 101.817 171 99.3299 171 97.5357C171 95.7415 172.003 93.2545 175.606 90.1106C179.181 86.9909 184.746 83.7499 192.385 80.525C207.621 74.0925 229.973 68.1875 257.969 63.1882C313.879 53.2041 391.321 47 477 47C562.679 47 640.121 53.2041 696.031 63.1882C724.027 68.1875 746.379 74.0925 761.615 80.525C769.254 83.7499 774.819 86.9909 778.394 90.1106C781.997 93.2545 783 95.7415 783 97.5357Z" stroke="#FFAA06" stroke-width="10"/>
</g>
<path d="M783 97.5357C783 99.3299 781.997 101.817 778.394 104.961C774.819 108.08 769.254 111.322 761.615 114.546C746.379 120.979 724.027 126.884 696.031 131.883C640.121 141.867 562.679 148.071 477 148.071C391.321 148.071 313.879 141.867 257.969 131.883C229.973 126.884 207.621 120.979 192.385 114.546C184.746 111.322 179.181 108.08 175.606 104.961C172.003 101.817 171 99.3299 171 97.5357C171 95.7415 172.003 93.2545 175.606 90.1106C179.181 86.9909 184.746 83.7499 192.385 80.525C207.621 74.0925 229.973 68.1875 257.969 63.1882C313.879 53.2041 391.321 47 477 47C562.679 47 640.121 53.2041 696.031 63.1882C724.027 68.1875 746.379 74.0925 761.615 80.525C769.254 83.7499 774.819 86.9909 778.394 90.1106C781.997 93.2545 783 95.7415 783 97.5357Z" stroke="#D0D0D0" stroke-width="10"/>
<defs>
<filter id="filter0_f_751_3" x="0" y="0" width="954" height="195" filterUnits="userSpaceOnUse" color-interpolation-filters="sRGB">
<feFlood flood-opacity="0" result="BackgroundImageFix"/>
<feBlend mode="normal" in="SourceGraphic" in2="BackgroundImageFix" result="shape"/>
<feGaussianBlur stdDeviation="7.5" result="effect1_foregroundBlur_751_3"/>
</filter>
<filter id="filter1_f_751_3" x="0" y="0" width="954" height="195" filterUnits="userSpaceOnUse" color-interpolation-filters="sRGB">
<feFlood flood-opacity="0" result="BackgroundImageFix"/>
<feBlend mode="normal" in="SourceGraphic" in2="BackgroundImageFix" result="shape"/>
<feGaussianBlur stdDeviation="7.5" result="effect1_foregroundBlur_751_3"/>
</filter>
<filter id="filter2_f_751_3" x="0" y="0" width="954" height="195" filterUnits="userSpaceOnUse" color-interpolation-filters="sRGB">
<feFlood flood-opacity="0" result="BackgroundImageFix"/>
<feBlend mode="normal" in="SourceGraphic" in2="BackgroundImageFix" result="shape"/>
<feGaussianBlur stdDeviation="7.5" result="effect1_foregroundBlur_751_3"/>
</filter>
<filter id="filter3_f_751_3" x="0" y="0" width="954" height="195" filterUnits="userSpaceOnUse" color-interpolation-filters="sRGB">
<feFlood flood-opacity="0" result="BackgroundImageFix"/>
<feBlend mode="normal" in="SourceGraphic" in2="BackgroundImageFix" result="shape"/>
<feGaussianBlur stdDeviation="7.5" result="effect1_foregroundBlur_751_3"/>
</filter>
<filter id="filter4_f_751_3" x="151" y="27" width="652" height="141.071" filterUnits="userSpaceOnUse" color-interpolation-filters="sRGB">
<feFlood flood-opacity="0" result="BackgroundImageFix"/>
<feBlend mode="normal" in="SourceGraphic" in2="BackgroundImageFix" result="shape"/>
<feGaussianBlur stdDeviation="7.5" result="effect1_foregroundBlur_751_3"/>
</filter>
<filter id="filter5_f_751_3" x="151" y="27" width="652" height="141.071" filterUnits="userSpaceOnUse" color-interpolation-filters="sRGB">
<feFlood flood-opacity="0" result="BackgroundImageFix"/>
<feBlend mode="normal" in="SourceGraphic" in2="BackgroundImageFix" result="shape"/>
<feGaussianBlur stdDeviation="7.5" result="effect1_foregroundBlur_751_3"/>
</filter>
<filter id="filter6_f_751_3" x="151" y="27" width="652" height="141.071" filterUnits="userSpaceOnUse" color-interpolation-filters="sRGB">
<feFlood flood-opacity="0" result="BackgroundImageFix"/>
<feBlend mode="normal" in="SourceGraphic" in2="BackgroundImageFix" result="shape"/>
<feGaussianBlur stdDeviation="7.5" result="effect1_foregroundBlur_751_3"/>
</filter>
<filter id="filter7_f_751_3" x="151" y="27" width="652" height="141.071" filterUnits="userSpaceOnUse" color-interpolation-filters="sRGB">
<feFlood flood-opacity="0" result="BackgroundImageFix"/>
<feBlend mode="normal" in="SourceGraphic" in2="BackgroundImageFix" result="shape"/>
<feGaussianBlur stdDeviation="7.5" result="effect1_foregroundBlur_751_3"/>
</filter>
</defs>
</svg>
